<svg xmlns="http://www.w3.org/2000/svg" viewBox="0 0 64 64">
  <defs>
    <linearGradient id="starBody" x1="0" y1="0" x2="1" y2="1">
      <stop offset="0%" stop-color="#FDE68A"/>
      <stop offset="40%" stop-color="#FACC15"/>
      <stop offset="100%" stop-color="#EAB308"/>
    </linearGradient>
    <linearGradient id="starShine" x1="0.2" y1="0" x2="0.8" y2="1">
      <stop offset="0%" stop-color="#FEF9C3" stop-opacity="0.9"/>
      <stop offset="50%" stop-color="#FDE68A" stop-opacity="0.3"/>
      <stop offset="100%" stop-color="#F59E0B" stop-opacity="0"/>
    </linearGradient>
    <filter id="shadow" x="-10%" y="-10%" width="130%" height="130%">
      <feDropShadow dx="0" dy="1.5" stdDeviation="1.5" flood-color="#92400E" flood-opacity="0.35"/>
    </filter>
  </defs>
  <path
    d="M32 6.5L39.51 22.08L56.7 24.58C58.79 24.88 59.63 27.43 58.12 28.89L45.68 40.9L48.62 57.86C48.98 59.93 46.83 61.5 44.96 60.5L32 53.55L19.04 60.5C17.17 61.5 15.02 59.93 15.38 57.86L18.32 40.9L5.88 28.89C4.37 27.43 5.21 24.88 7.3 24.58L24.49 22.08L32 6.5Z"
    fill="url(#starBody)"
    stroke="#D97706"
    stroke-width="2"
    stroke-linejoin="round"
    filter="url(#shadow)"
  />
  <path
    d="M32 10L37.8 22.5L51.5 24.5L41.5 34.5L43.8 48L32 41.5L20.2 48L22.5 34.5L12.5 24.5L26.2 22.5L32 10Z"
    fill="url(#starShine)"
  />
</svg>
